# xmcd
#
# Track frame offsets: 
#        150
#        18042
#        34097
#        47805
#        62520
#        75890
#        91712
#        103830
#        128260
#        141387
#        155847
#        174780
#        191090
#        206172
#        218685
#        236190
#        249140
#        265600
#        276595
#        295455
#        315985
#        331800
#
# Disc length: 4666 seconds
#
# Revision: 16
# Processed by: cddbd v1.5.2PL0 Copyright (c) Steve Scherf et al.
# Submitted via: ExactAudioCopyFreeDBPlugin 1.0
#
DISCID=2c123816
DTITLE=John Williamson - True Blue - The Very Best Of (25th Ann) Disc 
DTITLE=2
DYEAR=1995
DGENRE=Country
TTITLE0=This Is Australia Calling
TTITLE1=I'll Be Gone
TTITLE2=Rip Rip Woodchip
TTITLE3=Mallee Boy
TTITLE4=Cracker Night
TTITLE5=Boomerang Cafe
TTITLE6=Budgie Song
TTITLE7=Boogie With M' Baby
TTITLE8=I'm In The Mood
TTITLE9=Waratah Street
TTITLE10=A Bushman Can't Survive
TTITLE11=Drover's Boy
TTITLE12=Papa Whisky November
TTITLE13=Crocodile Roll
TTITLE14=Cootamundra Wattle
TTITLE15=Shelter
TTITLE16=Bill The Cat
TTITLE17=Beachcomber From Wollongong
TTITLE18=Galleries Of Pink Galahs
TTITLE19=Raining On The Rock
TTITLE20=A Flag Of Our Own
TTITLE21=True Blue
EXTD=
EXTT0=
EXTT1=
EXTT2=
EXTT3=
EXTT4=
EXTT5=
EXTT6=
EXTT7=
EXTT8=
EXTT9=
EXTT10=
EXTT11=
EXTT12=
EXTT13=
EXTT14=
EXTT15=
EXTT16=
EXTT17=
EXTT18=
EXTT19=
EXTT20=
EXTT21=
PLAYORDER=
